<?xml version="1.0" standalone="no"?>
<!DOCTYPE svg PUBLIC "-//W3C//DTD SVG 20010904//EN"
 "http://www.w3.org/TR/2001/REC-SVG-20010904/DTD/svg10.dtd">
<svg version="1.0" xmlns="http://www.w3.org/2000/svg"
 width="700.000000pt" height="700.000000pt" viewBox="0 0 700.000000 700.000000"
 preserveAspectRatio="xMidYMid meet">
<metadata>
Created by potrace 1.14, written by Peter Selinger 2001-2017
</metadata>
<g transform="translate(0.000000,700.000000) scale(0.100000,-0.100000)"
fill="#000000" stroke="none">
<path d="M1398 6848 c-148 -14 -274 -79 -376 -194 -51 -56 -114 -172 -126
-229 -3 -16 -9 -41 -12 -55 -4 -14 -7 -1301 -8 -2860 -2 -3155 -7 -2904 65
-3048 46 -91 161 -206 249 -249 148 -71 -1 -66 1850 -66 916 0 1686 2 1712 6
138 18 286 105 380 225 40 50 79 133 98 206 19 77 20 113 20 2080 l0 2001 684
685 c376 377 696 705 711 729 82 132 83 295 3 428 -78 130 -218 206 -366 198
-86 -5 -98 -8 -168 -41 -51 -23 -116 -84 -461 -428 l-403 -400 -1 247 c-1 136
-2 250 -3 255 -1 4 -5 25 -10 47 -16 87 -56 177 -105 238 -81 103 -216 189
-341 218 -43 10 -400 13 -1690 13 -899 1 -1665 -2 -1702 -6z"/>
</g>
</svg>
